<svg width="22" height="26" viewBox="0 0 22 26" fill="none" xmlns="http://www.w3.org/2000/svg">
<path d="M20.4875 6.3625C19.2414 6.08849 18.1142 5.42679 17.2676 4.47237C16.421 3.51794 15.8984 2.31984 15.775 1.05V0.5H11.4625V17.5875C11.4634 18.3457 11.2257 19.085 10.783 19.7006C10.3404 20.3162 9.71534 20.7769 8.99633 21.0175C8.27731 21.2581 7.50082 21.2663 6.77684 21.0411C6.05287 20.8159 5.41812 20.3685 4.9625 19.7625C4.55431 19.2261 4.30436 18.5861 4.24091 17.915C4.17746 17.2439 4.30305 16.5684 4.60347 15.965C4.90389 15.3616 5.36716 14.8542 5.94089 14.5003C6.51462 14.1464 7.17591 13.9601 7.85 13.9625C8.2228 13.9604 8.59374 14.0152 8.95 14.125V9.75C8.53542 9.69866 8.11763 9.67777 7.7 9.6875C6.16164 9.72861 4.66865 10.2174 3.40385 11.0941C2.13906 11.9708 1.15736 13.1972 0.578969 14.6233C0.000576243 16.0494 -0.149404 17.6132 0.147394 19.1232C0.444192 20.6332 1.17489 22.0239 2.25 23.125C3.35186 24.2453 4.76186 25.0127 6.30087 25.3297C7.83987 25.6468 9.43839 25.4992 10.8933 24.9057C12.3483 24.3122 13.5939 23.2996 14.472 21.9966C15.3502 20.6935 15.8211 19.1588 15.825 17.5875V8.8375C17.5643 10.0799 19.65 10.7446 21.7875 10.7375V6.4875C21.3676 6.48923 20.9487 6.44734 20.5375 6.3625H20.4875Z" fill="white" fill-opacity="0.6"/>
</svg>
