<svg width="30" height="20" viewBox="0 0 30 20" fill="none" xmlns="http://www.w3.org/2000/svg">
<path d="M29.375 3.13385C29.2051 2.52788 28.8743 1.97928 28.4175 1.54634C27.9479 1.1001 27.3723 0.78089 26.745 0.618845C24.3975 9.49576e-05 14.9925 9.50969e-05 14.9925 9.50969e-05C11.0717 -0.0445141 7.15179 0.151688 3.25501 0.587595C2.62775 0.761611 2.05321 1.08795 1.58251 1.5376C1.12001 1.9826 0.785009 2.53135 0.610009 3.1326C0.189625 5.39727 -0.0146264 7.69678 8.53959e-06 10.0001C-0.0149915 12.3013 0.188759 14.6001 0.610009 16.8676C0.781259 17.4663 1.11501 18.0126 1.57876 18.4538C2.04251 18.8951 2.62001 19.2138 3.25501 19.3826C5.63376 20.0001 14.9925 20.0001 14.9925 20.0001C18.9183 20.0448 22.8432 19.8486 26.745 19.4126C27.3723 19.2506 27.9479 18.9313 28.4175 18.4851C28.8741 18.0522 29.2046 17.5036 29.3738 16.8976C29.8051 14.6338 30.0149 12.3333 30 10.0288C30.0325 7.7146 29.823 5.4033 29.375 3.1326V3.13385ZM12.0025 14.2801V5.72134L19.8275 10.0013L12.0025 14.2801Z" fill="white" fill-opacity="0.6"/>
</svg>
